<?xml version="1.0" ?><!DOCTYPE svg  PUBLIC '-//W3C//DTD SVG 1.1//EN'  'http://www.w3.org/Graphics/SVG/1.1/DTD/svg11.dtd'><svg enable-background="new -2.357 -2.951 1024 1024" height="1024px" version="1.1" viewBox="-2.357 -2.951 1024 1024" width="1024px" xml:space="preserve" xmlns="http://www.w3.org/2000/svg" xmlns:xlink="http://www.w3.org/1999/xlink"><defs/><path d="M863.264,373.839  c0,48.341-9.798,94.395-27.516,136.282C782.598,635.785,513.143,984.38,513.143,984.38S243.688,635.785,190.537,510.121  c-17.717-41.887-27.514-87.94-27.514-136.282c0-193.366,156.754-350.12,350.12-350.12S863.264,180.473,863.264,373.839z   M513.143,200.112c-86.358,0-156.365,70.007-156.365,156.365c0,86.357,70.007,156.365,156.365,156.365  c86.358,0,156.364-70.008,156.364-156.365C669.507,270.12,599.501,200.112,513.143,200.112z" id="location_1_" stroke="#000000" stroke-miterlimit="10" stroke-width="40"/></svg>