<?xml version="1.0" encoding="utf-8"?>
<!-- Generator: Adobe Illustrator 16.0.0, SVG Export Plug-In . SVG Version: 6.00 Build 0)  -->
<!DOCTYPE svg PUBLIC "-//W3C//DTD SVG 1.1//EN" "http://www.w3.org/Graphics/SVG/1.1/DTD/svg11.dtd">
<svg version="1.1" id="Layer_1" xmlns="http://www.w3.org/2000/svg" xmlns:xlink="http://www.w3.org/1999/xlink" x="0px" y="0px"
	 width="1024px" height="1024px" viewBox="0 0 1024 1024" enable-background="new 0 0 1024 1024" xml:space="preserve">
<path id="location_1_" fill="#FFFFFF" stroke="#FFFFFF" stroke-width="40" stroke-miterlimit="10" d="M863.264,373.839
	c0,48.341-9.798,94.396-27.516,136.282C782.598,635.785,513.143,984.38,513.143,984.38S243.688,635.785,190.537,510.121
	c-17.717-41.887-27.514-87.94-27.514-136.282c0-193.366,156.754-350.12,350.12-350.12
	C706.509,23.719,863.264,180.473,863.264,373.839z M513.143,200.112c-86.357,0-156.365,70.007-156.365,156.365
	s70.007,156.365,156.365,156.365c86.358,0,156.364-70.008,156.364-156.365C669.507,270.12,599.501,200.112,513.143,200.112z"/>
</svg>
